<?xml version="1.0" encoding="UTF-8"?>
<svg width="27px" height="18px" viewBox="0 0 27 18" version="1.1" xmlns="http://www.w3.org/2000/svg" xmlns:xlink="http://www.w3.org/1999/xlink">
    <!-- Generator: Sketch 55 (78076) - https://sketchapp.com -->
    <title>Fill 1</title>
    <desc>Created with Sketch.</desc>
    <g id="Page-1" stroke="none" stroke-width="1" fill="none" fill-rule="evenodd">
        <g id="003-menu" transform="translate(-1132.000000, -612.000000)" stroke="#EEE6DD" stroke-width="1.5">
            <g id="Group-8" transform="translate(1129.000000, 608.000000)">
                <g id="Group-3">
                    <path d="M4.01923077,6.33956335 C4.00753846,6.4229457 4.00015385,6.51060407 4.00015385,6.59734615 L4.00015385,18.8145407 C4.00015385,19.8297896 4.82353846,20.6471199 5.846,20.6471199 L26.7693846,20.6471199 C27.7921538,20.6471199 28.6155385,19.8297896 28.6155385,18.8145407 L28.6155385,6.59734615 C28.6155385,6.51060407 28.6078462,6.4229457 28.5961538,6.33956335 L18.202,15.340276 C17.1173846,16.2791674 15.4786154,16.2806946 14.3943077,15.340276 L4.01923077,6.33956335 Z M5.846,4.76476697 C5.60415385,4.76476697 5.37461538,4.8151629 5.16353846,4.89823982 L15.6056923,13.9560679 C16.0570769,14.347629 16.538,14.3479344 16.9903077,13.9560679 L27.4518462,4.89823982 C27.2407692,4.8151629 27.0112308,4.76476697 26.7693846,4.76476697 L5.846,4.76476697 Z" id="Fill-1"></path>
                </g>
            </g>
        </g>
    </g>
</svg>