<?xml version="1.0" encoding="UTF-8"?>
<svg width="19px" height="25px" viewBox="0 0 19 25" version="1.1" xmlns="http://www.w3.org/2000/svg" xmlns:xlink="http://www.w3.org/1999/xlink">
    <!-- Generator: Sketch 55 (78076) - https://sketchapp.com -->
    <title>Fill 1</title>
    <desc>Created with Sketch.</desc>
    <g id="Page-1" stroke="none" stroke-width="1" fill="none" fill-rule="evenodd">
        <g id="003-menu" transform="translate(-1201.000000, -608.000000)" stroke="#EEE6DD" stroke-width="1.5">
            <g id="Group-3" transform="translate(1197.000000, 606.000000)">
                <path d="M21.6577718,22.6992657 L19.5471444,19.3001968 C19.0076421,18.4317609 17.8689713,18.1665033 17.0028093,18.7070757 L14.4634882,20.2935928 C13.5679946,19.4000141 12.547904,18.1325604 11.4322975,16.3361001 C10.3114262,14.5313426 9.62200643,13.0458999 9.21462201,11.8372806 L11.7524389,10.2522721 C12.6180995,9.71169971 12.8830874,8.56895482 12.3438358,7.70077042 L10.2329577,4.30195295 C9.69370609,3.43351712 8.5545339,3.16800807 7.68887334,3.70883189 L7.0856937,4.08572399 C6.80365834,4.2617243 6.58580168,4.50209045 6.4383912,4.77539379 C6.41256929,4.80682242 6.38674739,4.83900533 6.36117618,4.87244539 C5.78557333,5.61390957 5.38169868,6.54947694 5.19317371,7.57681591 C4.66720908,10.4418496 5.73067044,14.0360274 8.35347402,18.2595321 C11.0785624,22.6482256 13.9307548,25.2135558 16.8305797,25.8853742 C17.9745152,26.1503804 18.9096191,26.0696717 19.5872561,25.9052371 C19.8880938,25.8888942 20.1891823,25.7983797 20.463446,25.627408 L21.0663749,25.2505159 C21.9325369,24.7096921 22.1975248,23.5671986 21.6577718,22.6992657" id="Fill-1"></path>
            </g>
        </g>
    </g>
</svg>