<?xml version="1.0" encoding="UTF-8"?>
<svg width="84px" height="84px" viewBox="0 0 84 84" version="1.1" xmlns="http://www.w3.org/2000/svg" xmlns:xlink="http://www.w3.org/1999/xlink">
    <!-- Generator: Sketch 55 (78076) - https://sketchapp.com -->
    <title>Group 5</title>
    <desc>Created with Sketch.</desc>
    <defs>
        <polygon id="path-1" points="0.0213333333 0.152666667 3.50516667 0.152666667 3.50516667 2 0.0213333333 2"></polygon>
        <polygon id="path-3" points="0.345753354 0.021025 20.4248614 0.021025 20.4248614 28.6697401 0.345753354 28.6697401"></polygon>
        <polygon id="path-5" points="0.412394885 0.184842117 17.9468777 0.184842117 17.9468777 9 0.412394885 9"></polygon>
    </defs>
    <g id="Symbols" stroke="none" stroke-width="1" fill="none" fill-rule="evenodd">
        <g id="Group-5" transform="translate(2.000000, 2.000000)">
            <circle id="Oval" stroke="#F6F6F6" stroke-width="3" transform="translate(40.000000, 40.000000) rotate(-360.000000) translate(-40.000000, -40.000000) " cx="40" cy="40" r="40"></circle>
            <g id="Group-14" transform="translate(28.000000, 15.000000)">
                <g id="Group-3" transform="translate(14.000000, 33.000000)">
                    <mask id="mask-2" fill="white">
                        <use xlink:href="#path-1"></use>
                    </mask>
                    <g id="Clip-2"></g>
                    <path d="M3.35466667,1.286 C2.95466667,1.95266667 2.02133333,2.15266667 1.35466667,1.88533333 L0.0886666667,1.41866667 L0.0213333333,1.41866667 L3.35466667,0.152666667 C3.55533333,0.552 3.55533333,0.885333333 3.35466667,1.286" id="Fill-1" fill="#F2F2F2" mask="url(#mask-2)"></path>
                </g>
                <path d="M6.81155933,32 C5.72834191,31.5545546 1.03439978,29.6985321 1.32325776,29.772773 C0.167825847,29.3273276 -0.337675613,28.0652323 0.240040342,27.1001006 C0.889970791,26.060728 2.26204618,25.6895235 3.41747809,26.2834507 C9.05020865,29.030364 11,29.9954957 10.9277855,29.9212548 L11,29.9212548 C10.855571,29.9954957 7.1726318,31.7772773 6.81155933,32" id="Fill-4" fill="#F2F2F2"></path>
                <path d="M12,7 C14.2222222,7 16,8.77777778 16,11 C16,13.2222222 14.2222222,15 12,15 C9.77777778,15 8,13.2222222 8,11 C8,8.77777778 9.77777778,7 12,7" id="Fill-6" fill="#F2F2F2"></path>
                <g id="Group-10" transform="translate(2.000000, 0.000000)">
                    <mask id="mask-4" fill="white">
                        <use xlink:href="#path-3"></use>
                    </mask>
                    <g id="Clip-9"></g>
                    <path d="M1.35268,13.65059 C-0.25732,11.40309 0.09268,8.35809 2.19268,6.61809 C4.50268,4.73309 7.09268,3.35559 7.09268,1.47059 C7.09268,0.67309 7.72268,0.02059 8.49268,0.02059 C9.26268,0.02059 9.89268,0.67309 9.89268,1.47059 C9.89268,5.09559 6.32268,6.98059 3.94268,8.93809 C3.10268,9.66309 2.89268,10.89559 3.59268,11.83809 L6.53268,15.89809 C9.12268,15.39059 11.71268,15.39059 14.30268,15.89809 L17.24268,11.83809 C17.94268,10.96809 17.73268,9.66309 16.89268,8.93809 C14.58268,6.98059 11.08268,5.16809 11.08268,1.47059 C11.08268,0.67309 11.71268,0.02059 12.48268,0.02059 C13.25268,0.02059 13.88268,0.67309 13.88268,1.47059 C13.88268,3.35559 16.40268,4.73309 18.64268,6.61809 C20.67268,8.35809 21.02268,11.40309 19.41268,13.57809 L16.19268,18.00059 C15.56268,20.68309 15.42268,23.36559 15.77268,25.97559 C15.70268,25.97559 9.96268,28.87559 10.31268,28.65809 L4.99268,26.12059 C5.27268,23.43809 5.13268,20.75559 4.57268,18.07309 L1.35268,13.65059 Z" id="Fill-8" fill="#F2F2F2" mask="url(#mask-4)"></path>
                </g>
                <g id="Group-13" transform="translate(6.000000, 26.000000)">
                    <mask id="mask-6" fill="white">
                        <use xlink:href="#path-5"></use>
                    </mask>
                    <g id="Clip-12"></g>
                    <path d="M16.58304,3.75853846 C15.28704,4.24246154 21.40704,1.95784615 2.75904,8.88092308 C2.03904,9.15853846 1.03104,8.95084615 0.59904,8.25853846 C0.16704,7.56623077 0.52704,6.804 1.24704,6.45784615 C2.61576,5.83546154 -3.57696,8.67392308 14.49576,0.434769231 C15.57576,-0.119076923 17.01576,0.297 17.66304,1.197 C18.31104,2.16553846 17.80704,3.27392308 16.58304,3.75853846" id="Fill-11" fill="#F2F2F2" mask="url(#mask-6)"></path>
                </g>
            </g>
        </g>
    </g>
</svg>